<?xml version="1.0" encoding="UTF-8"?>
<svg id="Ebene_1" xmlns="http://www.w3.org/2000/svg" version="1.1" viewBox="0 0 947.06 947.06">
  <!-- Generator: Adobe Illustrator 30.6.0, SVG Export Plug-In . SVG Version: 2.1.4 Build 109)  -->
  <defs>
    <style>
      .st0 {
        fill: #fff;
      }

      .st1 {
        fill: navy;
      }

      .st2 {
        fill: none;
        stroke: gray;
        stroke-dasharray: 40.85;
        stroke-miterlimit: 10;
        stroke-width: 10.86px;
      }
    </style>
  </defs>
  <path class="st1" d="M835.53,473.63c0-199.8-162.2-362-362-362S111.53,273.83,111.53,473.63s162.2,362,362,362,362-162.2,362-362"/>
  <path class="st0" d="M729.53,323.63c0-58.5-47.5-106-106-106s-106,47.5-106,106,47.5,106,106,106,106-47.5,106-106"/>
  <path class="st1" d="M941.53,111.53c0-58.5-47.5-106-106-106s-106,47.5-106,106,47.5,106,106,106,106-47.4,106-106"/>
  <path class="st2" d="M890.63,261.03c33.5,65.8,51,138.6,51,212.5,0,258.4-209.7,468.1-468.1,468.1S5.43,731.93,5.43,473.53,215.13,5.43,473.53,5.43c83.1,0,164.6,22.1,236.2,63.9"/>
  <g id="SVGRepo_iconCarrier">
    <path class="st0" d="M636.33,326.55c-30.36-13.81-62.83-23.86-96.77-29.57-4.17,7.33-9.04,17.19-12.4,25.03-36.08-5.28-71.83-5.28-107.24,0-3.36-7.84-8.34-17.7-12.54-25.03-33.98,5.72-66.48,15.79-96.84,29.65-61.24,90-77.84,177.76-69.54,264.27,40.62,29.5,79.98,47.42,118.68,59.14,9.55-12.79,18.08-26.38,25.42-40.71-13.98-5.17-27.37-11.54-40.03-18.94,3.36-2.42,6.64-4.95,9.81-7.55,77.18,35.11,161.03,35.11,237.29,0,3.21,2.6,6.49,5.13,9.81,7.55-12.69,7.44-26.12,13.81-40.1,18.98,7.34,14.29,15.83,27.92,25.42,40.71,38.74-11.73,78.14-29.64,118.75-59.18,9.74-100.29-16.64-187.25-69.72-264.35h0ZM395.62,537.69c-23.17,0-42.17-21.03-42.17-46.65s18.59-46.68,42.17-46.68,42.57,21.03,42.17,46.68c.04,25.61-18.59,46.65-42.17,46.65ZM551.44,537.69c-23.17,0-42.17-21.03-42.17-46.65s18.59-46.68,42.17-46.68,42.57,21.03,42.17,46.68c0,25.61-18.59,46.65-42.17,46.65Z" data-darkreader-inline-fill=""/>
  </g>
</svg>