<?xml version="1.0" encoding="UTF-8"?>
<svg id="Ebene_1" xmlns="http://www.w3.org/2000/svg" version="1.1" viewBox="0 0 5092.96 947.06">
  <!-- Generator: Adobe Illustrator 30.6.0, SVG Export Plug-In . SVG Version: 2.1.4 Build 109)  -->
  <defs>
    <style>
      .st0 {
        fill: #fff;
      }

      .st1 {
        isolation: isolate;
      }

      .st2 {
        fill: navy;
      }

      .st3 {
        fill: none;
        stroke: gray;
        stroke-dasharray: 40.85;
        stroke-miterlimit: 10;
        stroke-width: 10.86px;
      }
    </style>
  </defs>
  <g>
    <path class="st2" d="M835.53,473.63c0-199.8-162.2-362-362-362S111.53,273.83,111.53,473.63s162.2,362,362,362,362-162.2,362-362"/>
    <path class="st0" d="M729.53,323.63c0-58.5-47.5-106-106-106s-106,47.5-106,106,47.5,106,106,106,106-47.5,106-106"/>
    <path class="st2" d="M941.53,111.53c0-58.5-47.5-106-106-106s-106,47.5-106,106,47.5,106,106,106,106-47.4,106-106"/>
    <path class="st3" d="M890.63,261.03c33.5,65.8,51,138.6,51,212.5,0,258.4-209.7,468.1-468.1,468.1S5.43,731.93,5.43,473.53,215.13,5.43,473.53,5.43c83.1,0,164.6,22.1,236.2,63.9"/>
    <g id="SVGRepo_iconCarrier">
      <path class="st0" d="M636.33,326.55c-30.36-13.81-62.83-23.86-96.77-29.57-4.17,7.33-9.04,17.19-12.4,25.03-36.08-5.28-71.83-5.28-107.24,0-3.36-7.84-8.34-17.7-12.54-25.03-33.98,5.72-66.48,15.79-96.84,29.65-61.24,90-77.84,177.76-69.54,264.27,40.62,29.5,79.98,47.42,118.68,59.14,9.55-12.79,18.08-26.38,25.42-40.71-13.98-5.17-27.37-11.54-40.03-18.94,3.36-2.42,6.64-4.95,9.81-7.55,77.18,35.11,161.03,35.11,237.29,0,3.21,2.6,6.49,5.13,9.81,7.55-12.69,7.44-26.12,13.81-40.1,18.98,7.34,14.29,15.83,27.92,25.42,40.71,38.74-11.73,78.14-29.64,118.75-59.18,9.74-100.29-16.64-187.25-69.72-264.35h0ZM395.62,537.69c-23.17,0-42.17-21.03-42.17-46.65s18.59-46.68,42.17-46.68,42.57,21.03,42.17,46.68c.04,25.61-18.59,46.65-42.17,46.65ZM551.44,537.69c-23.17,0-42.17-21.03-42.17-46.65s18.59-46.68,42.17-46.68,42.57,21.03,42.17,46.68c0,25.61-18.59,46.65-42.17,46.65Z" data-darkreader-inline-fill=""/>
    </g>
  </g>
  <g class="st1">
    <g class="st1">
      <g class="st1">
        <path class="st0" d="M1156.59,277.28h213.75c51.52,0,95.09,8.13,130.71,24.38,35.62,16.26,62.29,38.88,80.02,67.87,17.72,29,26.58,62.14,26.58,99.44s-9.23,69.72-27.68,99.44c-18.46,29.73-46.59,53.28-84.4,70.63-37.82,17.36-84.68,26.04-140.58,26.04h-198.4v-387.8ZM1432.82,540.15c18.63-17.54,27.95-41.46,27.95-71.74,0-28.06-8.32-50.5-24.94-67.31-16.63-16.8-41.75-25.21-75.36-25.21h-66.87v190.58h59.19c34.71,0,61.38-8.77,80.02-26.31Z"/>
        <path class="st0" d="M1668.77,314.4c-13.7-10.34-20.55-23.63-20.55-39.89s6.94-28.89,20.83-39.06c13.88-10.15,31.42-15.24,52.62-15.24s38.45,5.08,51.79,15.24c13.33,10.16,20,23.18,20,39.06s-6.67,29.55-20,39.89c-13.34,10.34-30.61,15.51-51.79,15.51s-39.19-5.17-52.89-15.51ZM1653.7,363.15h134.28v301.93h-134.28v-301.93Z"/>
        <path class="st0" d="M1918.96,664.52c-29.6-7.76-56.27-18.84-80.02-33.24v-91.96c17.9,13.67,41.93,25.03,72.07,34.07,30.14,9.05,59.28,13.57,87.42,13.57,13.15,0,23.1-1.66,29.87-4.99,6.76-3.32,10.14-7.38,10.14-12.19,0-5.54-1.83-10.15-5.48-13.85-3.66-3.69-10.78-6.65-21.37-8.86l-65.77-14.4c-38-8.12-64.86-20.03-80.57-35.73-15.71-15.69-23.57-36.29-23.57-61.77,0-21.05,6.94-39.52,20.83-55.4,13.88-15.88,33.61-28.16,59.19-36.84,25.57-8.67,55.54-13.02,89.88-13.02,30.69,0,58.64,3.24,83.85,9.7,25.21,6.47,46.59,14.87,64.12,25.21v86.98c-17.91-10.34-37.91-18.46-60.01-24.38-22.11-5.9-45.04-8.86-68.78-8.86-34.35,0-51.52,5.91-51.52,17.73,0,5.54,2.55,9.61,7.67,12.19,5.11,2.59,14.98,5.18,29.6,7.76l54.81,9.97c35.8,6.65,62.48,17.55,80.02,32.69,17.54,15.15,26.31,38.04,26.31,68.7,0,21.8-6.49,40.81-19.46,57.06-12.97,16.26-31.98,28.9-57,37.95-25.03,9.05-55.27,13.57-90.71,13.57-31.43,0-61.93-3.88-91.53-11.63Z"/>
        <path class="st0" d="M2302.89,653.17c-31.24-15.32-54.9-36.19-70.98-62.6-16.08-26.4-24.12-56.04-24.12-88.92s8.22-62.23,24.66-88.09c16.44-25.85,40.56-46.26,72.35-61.22s69.79-22.44,114-22.44c54.81,0,100.3,11.45,136.47,34.35v101.38c-12.43-8.49-27.22-15.51-44.39-21.05-17.18-5.54-35.44-8.31-54.81-8.31-33.98,0-60.56,6.19-79.74,18.56-19.18,12.38-28.77,28.35-28.77,47.92s9.32,35.09,27.95,47.64c18.63,12.56,45.67,18.84,81.12,18.84,18.27,0,36.26-2.58,53.98-7.76,17.72-5.17,32.97-11.63,45.76-19.39v98.06c-39.83,24.01-86.42,36.01-139.76,36.01-44.58,0-82.48-7.67-113.72-22.99Z"/>
        <path class="st0" d="M2687.63,653.17c-31.61-15.32-55.72-36.29-72.35-62.88-16.63-26.59-24.94-56.51-24.94-89.75s8.31-62.78,24.94-88.64c16.62-25.85,40.64-45.98,72.07-60.39,31.42-14.4,68.87-21.61,112.35-21.61s80.93,7.2,112.36,21.61c31.42,14.4,55.36,34.54,71.8,60.39,16.44,25.86,24.66,55.4,24.66,88.64s-8.22,63.16-24.66,89.75c-16.44,26.59-40.47,47.56-72.07,62.88-31.61,15.32-68.97,22.99-112.08,22.99s-80.48-7.67-112.08-22.99ZM2854.25,556.22c13.33-13.48,20-31.3,20-53.46s-6.67-39.79-20-52.91c-13.34-13.11-31.51-19.67-54.53-19.67s-41.75,6.56-55.08,19.67c-13.34,13.11-20,30.75-20,52.91s6.66,39.98,20,53.46c13.33,13.49,31.69,20.22,55.08,20.22s41.19-6.74,54.53-20.22Z"/>
        <path class="st0" d="M3054.01,340.99h131.54v103.04c7.3-37.67,19.09-65.46,35.35-83.38,16.25-17.91,37.17-26.87,62.75-26.87,19.36,0,35.98,4.43,49.88,13.3v119.66c-13.89-9.23-31.98-13.85-54.26-13.85-29.24,0-51.71,8.96-67.41,26.87-15.71,17.92-23.57,45.71-23.57,83.38v101.94h-134.28v-324.09Z"/>
        <path class="st0" d="M3423.96,653.72c-22.66-14.96-40.1-35.46-52.34-61.49-12.25-26.04-18.36-55.49-18.36-88.36-.37-33.98,5.84-64.17,18.63-90.58,12.79-26.4,31.24-46.9,55.36-61.49,24.12-14.59,52.07-21.88,83.86-21.88,65.77,0,109.07,26.78,129.89,80.33v-144.04h134.28v398.88h-134.28v-72.02c-11.33,27.34-28.59,48.02-51.79,62.05-23.21,14.03-51.79,21.05-85.77,21.05-30.33,0-56.82-7.48-79.47-22.44ZM3620.99,552.34c13.7-13.48,20.55-30.93,20.55-52.35s-6.67-37.48-20-50.41c-13.34-12.92-31.51-19.39-54.53-19.39s-40.75,6.56-54.26,19.67c-13.52,13.11-20.28,30.19-20.28,51.24s6.76,38.23,20.28,51.52c13.51,13.3,31.42,19.94,53.71,19.94s40.83-6.74,54.53-20.22Z"/>
        <path class="st0" d="M3859.67,667.57c-11.7-5.72-20.92-13.57-27.68-23.54-6.76-9.97-10.14-20.86-10.14-32.69,0-18.09,7.4-33.33,22.2-45.71,14.8-12.37,33.16-18.56,55.08-18.56s40.19,6.19,54.81,18.56c14.61,12.38,21.92,27.61,21.92,45.71s-7.31,33.89-21.92,46.26c-14.62,12.37-32.88,18.56-54.81,18.56-14.62,0-27.77-2.87-39.46-8.59Z"/>
      </g>
    </g>
    <g class="st1">
      <g class="st1">
        <path class="st2" d="M4064.79,645.69c-22.29-20.31-33.43-51.15-33.43-92.52v-286.97h134.28v269.24c0,29.92,16.99,44.87,50.97,44.87,16.07,0,30.69-3.32,43.85-9.97v90.3c-9.51,4.79-22.66,8.59-39.46,11.36-16.81,2.77-34.35,4.16-52.62,4.16-46.77,0-81.3-10.16-103.59-30.47Z"/>
        <path class="st2" d="M4332.24,639.87c-24.12-24.19-36.17-58.63-36.17-103.32v-195.56h134.28v162.32c0,24.75,4.84,42.93,14.52,54.57,9.68,11.63,24.75,17.45,45.22,17.45,42.75-.74,64.12-25.67,64.12-74.79v-159.55h134.28v324.09h-134.28v-65.93c-20.83,51.34-61.2,77.01-121.12,77.01-43.12,0-76.73-12.09-100.85-36.29Z"/>
        <path class="st2" d="M4789.61,662.58c-17.73-9.05-31.24-21.61-40.56-37.67s-13.98-34.07-13.98-54.01,5.02-39.06,15.07-55.12c10.04-16.07,24.48-28.53,43.3-37.4,18.81-8.86,41.01-13.3,66.59-13.3,23.02,0,42.66,3.42,58.92,10.25,16.25,6.84,30.6,17.64,43.02,32.41-2.56-23.63-13.25-41.73-32.06-54.29-18.82-12.55-43.02-18.84-72.62-18.84-19.73,0-38.73,3.42-57,10.25-18.27,6.84-34.9,16.71-49.87,29.64v-101.38c41.65-28.81,91.89-43.21,150.72-43.21,62.11,0,109.61,15.05,142.5,45.15,32.88,30.11,49.33,73.59,49.33,130.47v159.55h-129.89v-40.44c-23.39,34.35-60.29,51.52-110.71,51.52-24.12,0-45.04-4.53-62.75-13.57ZM4947.45,589.46c10.41-6.83,15.62-15.79,15.62-26.87s-5.12-19.39-15.35-26.04c-10.23-6.65-23.75-9.97-40.56-9.97-15.35,0-27.5,3.32-36.45,9.97-8.96,6.65-13.43,15.51-13.43,26.59s4.47,19.94,13.43,26.59c8.95,6.65,20.91,9.97,35.9,9.97,16.8,0,30.42-3.41,40.83-10.25Z"/>
      </g>
    </g>
  </g>
</svg>